<svg width="220" height="32" viewBox="0 0 220 32" fill="none" xmlns="http://www.w3.org/2000/svg">
<g id="&#235;&#179;&#132; 1">
<g id="&#235;&#179;&#132;5">
<path id="Vector" d="M205.165 1.75513L208.843 9.49788C208.926 9.69442 209.058 9.86464 209.224 9.99161C209.391 10.1186 209.586 10.1978 209.791 10.2215L217.91 11.4758C218.145 11.5073 218.367 11.6079 218.549 11.7659C218.731 11.9238 218.867 12.1326 218.94 12.3678C219.013 12.603 219.019 12.855 218.96 13.0942C218.901 13.3335 218.777 13.5502 218.604 13.719L212.752 19.7733C212.603 19.9188 212.49 20.101 212.426 20.3032C212.361 20.5054 212.346 20.7213 212.382 20.9311L213.793 29.4456C213.834 29.6905 213.808 29.942 213.718 30.1721C213.629 30.4023 213.479 30.6015 213.286 30.7474C213.093 30.8931 212.865 30.9795 212.628 30.9968C212.39 31.014 212.152 30.9614 211.942 30.8446L204.633 26.8165C204.446 26.7207 204.24 26.671 204.031 26.671C203.823 26.671 203.617 26.7207 203.43 26.8165L196.12 30.8446C195.91 30.9614 195.673 31.014 195.435 30.9968C195.197 30.9795 194.969 30.8931 194.776 30.7474C194.584 30.6015 194.434 30.4023 194.344 30.1721C194.255 29.942 194.229 29.6905 194.27 29.4456L195.681 20.8346C195.717 20.6248 195.701 20.4089 195.637 20.2067C195.572 20.0045 195.46 19.8223 195.311 19.6768L189.389 13.719C189.214 13.5456 189.091 13.3229 189.034 13.0779C188.978 12.833 188.991 12.5762 189.072 12.3388C189.153 12.1014 189.298 11.8936 189.49 11.7404C189.681 11.5872 189.912 11.4953 190.152 11.4758L198.272 10.2215C198.476 10.1978 198.672 10.1186 198.838 9.99161C199.005 9.86464 199.136 9.69442 199.22 9.49788L202.898 1.75513C202.998 1.52962 203.158 1.3387 203.359 1.2049C203.56 1.0711 203.793 1 204.031 1C204.27 1 204.503 1.0711 204.704 1.2049C204.905 1.3387 205.065 1.52962 205.165 1.75513Z" fill="#E0E0E0" stroke="#E0E0E0" stroke-width="2" stroke-linecap="round"/>
</g>
<g id="&#235;&#179;&#132;4">
<path id="Vector_2" d="M158.165 1.75513L161.843 9.49788C161.926 9.69442 162.058 9.86464 162.224 9.99161C162.391 10.1186 162.586 10.1978 162.791 10.2215L170.91 11.4758C171.145 11.5073 171.367 11.6079 171.549 11.7659C171.731 11.9238 171.867 12.1326 171.94 12.3678C172.013 12.603 172.019 12.855 171.96 13.0942C171.901 13.3335 171.777 13.5502 171.604 13.719L165.752 19.7733C165.603 19.9188 165.49 20.101 165.426 20.3032C165.361 20.5054 165.346 20.7213 165.382 20.9311L166.793 29.4456C166.834 29.6905 166.808 29.942 166.718 30.1721C166.629 30.4023 166.479 30.6015 166.286 30.7474C166.093 30.8931 165.865 30.9795 165.628 30.9968C165.39 31.014 165.152 30.9614 164.942 30.8446L157.633 26.8165C157.446 26.7207 157.24 26.671 157.031 26.671C156.823 26.671 156.617 26.7207 156.43 26.8165L149.12 30.8446C148.91 30.9614 148.673 31.014 148.435 30.9968C148.197 30.9795 147.969 30.8931 147.776 30.7474C147.584 30.6015 147.434 30.4023 147.344 30.1721C147.255 29.942 147.229 29.6905 147.27 29.4456L148.681 20.8346C148.717 20.6248 148.701 20.4089 148.637 20.2067C148.572 20.0045 148.46 19.8223 148.311 19.6768L142.389 13.719C142.214 13.5456 142.091 13.3229 142.034 13.0779C141.978 12.833 141.991 12.5762 142.072 12.3388C142.153 12.1014 142.298 11.8936 142.49 11.7404C142.681 11.5872 142.912 11.4953 143.152 11.4758L151.272 10.2215C151.476 10.1978 151.672 10.1186 151.838 9.99161C152.005 9.86464 152.136 9.69442 152.22 9.49788L155.898 1.75513C155.998 1.52962 156.158 1.3387 156.359 1.2049C156.56 1.0711 156.793 1 157.031 1C157.27 1 157.503 1.0711 157.704 1.2049C157.905 1.3387 158.065 1.52962 158.165 1.75513Z" fill="#E0E0E0" stroke="#E0E0E0" stroke-width="2" stroke-linecap="round"/>
</g>
<g id="&#235;&#179;&#132;3">
<path id="Vector_3" d="M111.165 1.75513L114.843 9.49788C114.926 9.69442 115.058 9.86464 115.224 9.99161C115.391 10.1186 115.586 10.1978 115.791 10.2215L123.91 11.4758C124.145 11.5073 124.367 11.6079 124.549 11.7659C124.731 11.9238 124.867 12.1326 124.94 12.3678C125.013 12.603 125.019 12.855 124.96 13.0942C124.901 13.3335 124.777 13.5502 124.604 13.719L118.752 19.7733C118.603 19.9188 118.49 20.101 118.426 20.3032C118.361 20.5054 118.346 20.7213 118.382 20.9311L119.793 29.4456C119.834 29.6905 119.808 29.942 119.718 30.1721C119.629 30.4023 119.479 30.6015 119.286 30.7474C119.093 30.8931 118.865 30.9795 118.628 30.9968C118.39 31.014 118.152 30.9614 117.942 30.8446L110.633 26.8165C110.446 26.7207 110.24 26.671 110.031 26.671C109.823 26.671 109.617 26.7207 109.43 26.8165L102.12 30.8446C101.91 30.9614 101.673 31.014 101.435 30.9968C101.197 30.9795 100.969 30.8931 100.776 30.7474C100.584 30.6015 100.434 30.4023 100.344 30.1721C100.255 29.942 100.229 29.6905 100.27 29.4456L101.681 20.8346C101.717 20.6248 101.701 20.4089 101.637 20.2067C101.572 20.0045 101.46 19.8223 101.311 19.6768L95.3891 13.719C95.2139 13.5456 95.0907 13.3229 95.0344 13.0779C94.9781 12.833 94.9911 12.5762 95.0719 12.3388C95.1527 12.1014 95.2978 11.8936 95.4895 11.7404C95.6813 11.5872 95.9116 11.4953 96.1524 11.4758L104.272 10.2215C104.476 10.1978 104.672 10.1186 104.838 9.99161C105.005 9.86464 105.136 9.69442 105.22 9.49788L108.898 1.75513C108.998 1.52962 109.158 1.3387 109.359 1.2049C109.56 1.0711 109.793 1 110.031 1C110.27 1 110.503 1.0711 110.704 1.2049C110.905 1.3387 111.065 1.52962 111.165 1.75513Z" fill="#E0E0E0" stroke="#E0E0E0" stroke-width="2" stroke-linecap="round"/>
</g>
<g id="&#235;&#179;&#132;2">
<path id="Vector_4" d="M64.1647 1.75513L67.8426 9.49788C67.9263 9.69442 68.0579 9.86464 68.2243 9.99161C68.3907 10.1186 68.5861 10.1978 68.791 10.2215L76.9101 11.4758C77.1453 11.5073 77.3669 11.6079 77.5492 11.7659C77.7315 11.9238 77.867 12.1326 77.9397 12.3678C78.0125 12.603 78.0195 12.855 77.96 13.0942C77.9008 13.3335 77.7773 13.5502 77.604 13.719L71.7518 19.7733C71.6026 19.9188 71.4904 20.101 71.4259 20.3032C71.3611 20.5054 71.3461 20.7213 71.3817 20.9311L72.7927 29.4456C72.8336 29.6905 72.8077 29.942 72.7182 30.1721C72.6287 30.4023 72.479 30.6015 72.2861 30.7474C72.0934 30.8931 71.8651 30.9795 71.6276 30.9968C71.39 31.014 71.1524 30.9614 70.9422 30.8446L63.6327 26.8165C63.4455 26.7207 63.2398 26.671 63.0313 26.671C62.8228 26.671 62.617 26.7207 62.4299 26.8165L55.1203 30.8446C54.91 30.9614 54.6726 31.014 54.435 30.9968C54.1974 30.9795 53.9692 30.8931 53.7764 30.7474C53.5836 30.6015 53.4339 30.4023 53.3443 30.1721C53.2548 29.942 53.229 29.6905 53.2698 29.4456L54.6808 20.8346C54.7166 20.6248 54.7015 20.4089 54.6368 20.2067C54.5722 20.0045 54.4601 19.8223 54.3107 19.6768L48.3891 13.719C48.2139 13.5456 48.0907 13.3229 48.0344 13.0779C47.9781 12.833 47.9911 12.5762 48.0719 12.3388C48.1527 12.1014 48.2978 11.8936 48.4895 11.7404C48.6813 11.5872 48.9116 11.4953 49.1524 11.4758L57.2716 10.2215C57.4765 10.1978 57.6719 10.1186 57.8383 9.99161C58.0047 9.86464 58.1363 9.69442 58.2199 9.49788L61.8978 1.75513C61.998 1.52962 62.1579 1.3387 62.3588 1.2049C62.5596 1.0711 62.793 1 63.0313 1C63.2696 1 63.503 1.0711 63.7038 1.2049C63.9046 1.3387 64.0646 1.52962 64.1647 1.75513Z" fill="#E0E0E0" stroke="#E0E0E0" stroke-width="2" stroke-linecap="round"/>
</g>
<g id="&#235;&#179;&#132;1">
<path id="Vector_5" d="M17.1647 1.75513L20.8426 9.49788C20.9263 9.69442 21.0579 9.86464 21.2243 9.99161C21.3907 10.1186 21.5861 10.1978 21.791 10.2215L29.9101 11.4758C30.1453 11.5073 30.3669 11.6079 30.5492 11.7659C30.7315 11.9238 30.867 12.1326 30.9397 12.3678C31.0125 12.603 31.0195 12.855 30.96 13.0942C30.9008 13.3335 30.7773 13.5502 30.604 13.719L24.7518 19.7733C24.6026 19.9188 24.4904 20.101 24.4259 20.3032C24.3611 20.5054 24.3461 20.7213 24.3817 20.9311L25.7927 29.4456C25.8336 29.6905 25.8077 29.942 25.7182 30.1721C25.6287 30.4023 25.479 30.6015 25.2861 30.7474C25.0934 30.8931 24.8651 30.9795 24.6276 30.9968C24.39 31.014 24.1524 30.9614 23.9422 30.8446L16.6327 26.8165C16.4455 26.7207 16.2398 26.671 16.0313 26.671C15.8228 26.671 15.617 26.7207 15.4299 26.8165L8.12033 30.8446C7.91004 30.9614 7.67259 31.014 7.43501 30.9968C7.19743 30.9795 6.96923 30.8931 6.77643 30.7474C6.58361 30.6015 6.4339 30.4023 6.34434 30.1721C6.2548 29.942 6.22896 29.6905 6.26981 29.4456L7.68083 20.8346C7.71659 20.6248 7.70146 20.4089 7.63683 20.2067C7.5722 20.0045 7.46008 19.8223 7.31072 19.6768L1.38908 13.719C1.21389 13.5456 1.09068 13.3229 1.03439 13.0779C0.978095 12.833 0.991131 12.5762 1.07191 12.3388C1.1527 12.1014 1.29776 11.8936 1.48954 11.7404C1.68131 11.5872 1.91157 11.4953 2.15241 11.4758L10.2716 10.2215C10.4765 10.1978 10.6719 10.1186 10.8383 9.99161C11.0047 9.86464 11.1363 9.69442 11.2199 9.49788L14.8978 1.75513C14.998 1.52962 15.1579 1.3387 15.3588 1.2049C15.5596 1.0711 15.793 1 16.0313 1C16.2696 1 16.503 1.0711 16.7038 1.2049C16.9046 1.3387 17.0646 1.52962 17.1647 1.75513Z" fill="#E0E0E0" stroke="#E0E0E0" stroke-width="2" stroke-linecap="round"/>
</g>
</g>
</svg>
