<svg width="49" height="49" viewBox="0 0 49 49" fill="none" xmlns="http://www.w3.org/2000/svg">
<circle cx="24.5" cy="24.5" r="24.5" fill="#2CB3FF"/>
<path d="M23.5385 13.8519V12.9259C23.5385 12.6804 23.6398 12.4448 23.8201 12.2712C24.0004 12.0976 24.245 12 24.5 12C24.755 12 24.9996 12.0976 25.1799 12.2712C25.3602 12.4448 25.4615 12.6804 25.4615 12.9259V13.8519C25.4615 14.0974 25.3602 14.3329 25.1799 14.5066C24.9996 14.6802 24.755 14.7778 24.5 14.7778C24.245 14.7778 24.0004 14.6802 23.8201 14.5066C23.6398 14.3329 23.5385 14.0974 23.5385 13.8519ZM33.1538 17.5556C33.2802 17.5557 33.4052 17.5318 33.522 17.4853C33.6387 17.4388 33.7448 17.3707 33.8341 17.2847L34.7957 16.3588C34.9761 16.1851 35.0775 15.9494 35.0775 15.7037C35.0775 15.458 34.9761 15.2224 34.7957 15.0486C34.6152 14.8749 34.3705 14.7773 34.1154 14.7773C33.8602 14.7773 33.6155 14.8749 33.4351 15.0486L32.4736 15.9745C32.3389 16.104 32.2472 16.2691 32.2101 16.4488C32.1729 16.6285 32.1919 16.8148 32.2648 16.9841C32.3376 17.1533 32.461 17.298 32.6192 17.3997C32.7775 17.5015 32.9636 17.5557 33.1538 17.5556ZM15.1659 17.2847C15.3463 17.4585 15.591 17.5561 15.8462 17.5561C16.1013 17.5561 16.346 17.4585 16.5264 17.2847C16.7069 17.111 16.8082 16.8753 16.8082 16.6296C16.8082 16.3839 16.7069 16.1483 16.5264 15.9745L15.5649 15.0486C15.3845 14.8749 15.1398 14.7773 14.8846 14.7773C14.6295 14.7773 14.3848 14.8749 14.2043 15.0486C14.0239 15.2224 13.9225 15.458 13.9225 15.7037C13.9225 15.9494 14.0239 16.1851 14.2043 16.3588L15.1659 17.2847ZM37 32.3704V35.1481C37 35.6393 36.7974 36.1103 36.4367 36.4576C36.0761 36.8049 35.587 37 35.0769 37H13.9231C13.413 37 12.9239 36.8049 12.5633 36.4576C12.2026 36.1103 12 35.6393 12 35.1481V32.3704C12 31.8792 12.2026 31.4082 12.5633 31.0609C12.9239 30.7136 13.413 30.5185 13.9231 30.5185V26.8148C13.923 25.4707 14.1993 24.1399 14.7358 22.8991C15.2724 21.6583 16.0587 20.532 17.0494 19.5852C18.0401 18.6384 19.2156 17.8898 20.5082 17.3826C21.8007 16.8753 23.1848 16.6194 24.5805 16.6296C30.3678 16.6713 35.0769 21.2928 35.0769 26.9306V30.5185C35.587 30.5185 36.0761 30.7136 36.4367 31.0609C36.7974 31.4082 37 31.8792 37 32.3704ZM25.3029 22.1725C27.5853 22.5417 29.3077 24.537 29.3077 26.8148C29.3077 27.0604 29.409 27.2959 29.5893 27.4695C29.7696 27.6432 30.0142 27.7407 30.2692 27.7407C30.5242 27.7407 30.7688 27.6432 30.9491 27.4695C31.1295 27.2959 31.2308 27.0604 31.2308 26.8148C31.2308 23.6435 28.8185 20.8623 25.6202 20.3461C25.4951 20.3248 25.3669 20.3275 25.2429 20.3542C25.119 20.3809 25.0017 20.431 24.898 20.5016C24.7942 20.5721 24.706 20.6618 24.6385 20.7654C24.5709 20.869 24.5253 20.9844 24.5044 21.1051C24.4834 21.2257 24.4875 21.3491 24.5164 21.4683C24.5452 21.5874 24.5983 21.6998 24.6726 21.7991C24.7468 21.8983 24.8407 21.9824 24.9489 22.0465C25.0571 22.1106 25.1774 22.1534 25.3029 22.1725ZM35.0769 35.1481V32.3704H13.9231V35.1481H35.0769Z" fill="white"/>
</svg>
