<svg width="49" height="49" viewBox="0 0 49 49" fill="none" xmlns="http://www.w3.org/2000/svg">
<circle cx="24.5" cy="24.5" r="24.5" fill="#2CB3FF"/>
<path d="M24.4991 18.4179C27.377 18.4179 29.708 16.0869 29.708 13.2089C29.708 10.331 27.377 8 24.4991 8C21.6212 8 19.2902 10.331 19.2902 13.2089C19.2902 16.0869 21.6212 18.4179 24.4991 18.4179ZM21.0221 34.6176L22.689 32.534L18.6846 29.2003L15.696 32.9377C14.9537 33.8623 14.9342 35.1776 15.6439 36.1282L18.7693 40.2953C19.2837 40.979 20.065 41.3371 20.8529 41.3371C21.3933 41.3371 21.9467 41.1678 22.4155 40.8162C23.568 39.9568 23.7959 38.3225 22.9364 37.17L21.0221 34.6176ZM30.3136 29.2003L26.3092 32.534L27.9761 34.6176L26.0618 37.17C25.2023 38.3225 25.4302 39.9568 26.5827 40.8162C27.0515 41.1678 27.5984 41.3371 28.1454 41.3371C28.9397 41.3371 29.7211 40.979 30.2289 40.2953L33.3543 36.1282C34.064 35.1776 34.0445 33.8623 33.3022 32.9377L30.3136 29.2003ZM36.5252 17.4412C35.6983 16.2627 34.077 15.9827 32.8985 16.8031L30.255 18.6588C26.8236 21.0679 22.1681 21.0679 18.7432 18.6588L16.0997 16.8096C14.9212 15.9827 13.2999 16.2692 12.473 17.4412C11.6461 18.6197 11.9326 20.241 13.1046 21.0679L15.7481 22.9236C16.855 23.6984 18.0531 24.2844 19.2902 24.7402V26.7521H29.708V24.7467C30.9451 24.2909 32.1432 23.7049 33.2501 22.9301L35.8936 21.0744C37.0721 20.241 37.3521 18.6197 36.5252 17.4412Z" fill="white"/>
</svg>
