<svg width="49" height="49" viewBox="0 0 49 49" fill="none" xmlns="http://www.w3.org/2000/svg">
<circle cx="24.5" cy="24.5" r="24.5" fill="#2CB3FF"/>
<path d="M14.1637 23.8555H12.1417C12.1048 23.5939 12.0294 23.3615 11.9155 23.1584C11.8016 22.9522 11.6554 22.7768 11.4769 22.6321C11.2984 22.4875 11.0922 22.3767 10.8583 22.2997C10.6275 22.2228 10.3767 22.1843 10.1058 22.1843C9.61648 22.1843 9.19022 22.3059 8.82706 22.549C8.4639 22.7891 8.18229 23.1399 7.98224 23.6016C7.7822 24.0601 7.68217 24.6172 7.68217 25.2727C7.68217 25.9467 7.7822 26.513 7.98224 26.9716C8.18537 27.4302 8.46851 27.7764 8.83168 28.0103C9.19484 28.2442 9.61494 28.3612 10.092 28.3612C10.3597 28.3612 10.6075 28.3258 10.8352 28.255C11.0661 28.1842 11.2707 28.0811 11.4492 27.9457C11.6277 27.8072 11.7755 27.6394 11.8924 27.4425C12.0124 27.2455 12.0955 27.0208 12.1417 26.7685L14.1637 26.7777C14.1114 27.2116 13.9806 27.6302 13.7713 28.0334C13.5651 28.4335 13.2866 28.792 12.9357 29.109C12.5879 29.4229 12.1725 29.6722 11.6893 29.8569C11.2092 30.0385 10.666 30.1293 10.0597 30.1293C9.21638 30.1293 8.46236 29.9384 7.79759 29.5568C7.13589 29.1752 6.61269 28.6228 6.22798 27.8995C5.84635 27.1763 5.65554 26.3007 5.65554 25.2727C5.65554 24.2417 5.84943 23.3646 6.23722 22.6413C6.625 21.9181 7.15128 21.3672 7.81605 20.9886C8.48082 20.607 9.22869 20.4162 10.0597 20.4162C10.6075 20.4162 11.1153 20.4931 11.5831 20.647C12.054 20.8009 12.471 21.0256 12.8342 21.321C13.1973 21.6134 13.4928 21.9719 13.7205 22.3967C13.9513 22.8214 14.0991 23.3076 14.1637 23.8555ZM23.9391 23.8555H21.9171C21.8801 23.5939 21.8047 23.3615 21.6909 23.1584C21.577 22.9522 21.4308 22.7768 21.2523 22.6321C21.0738 22.4875 20.8676 22.3767 20.6337 22.2997C20.4029 22.2228 20.152 22.1843 19.8812 22.1843C19.3919 22.1843 18.9656 22.3059 18.6025 22.549C18.2393 22.7891 17.9577 23.1399 17.7576 23.6016C17.5576 24.0601 17.4576 24.6172 17.4576 25.2727C17.4576 25.9467 17.5576 26.513 17.7576 26.9716C17.9608 27.4302 18.2439 27.7764 18.6071 28.0103C18.9702 28.2442 19.3903 28.3612 19.8674 28.3612C20.1351 28.3612 20.3829 28.3258 20.6106 28.255C20.8414 28.1842 21.0461 28.0811 21.2246 27.9457C21.4031 27.8072 21.5508 27.6394 21.6678 27.4425C21.7878 27.2455 21.8709 27.0208 21.9171 26.7685L23.9391 26.7777C23.8868 27.2116 23.756 27.6302 23.5467 28.0334C23.3405 28.4335 23.062 28.792 22.7111 29.109C22.3633 29.4229 21.9479 29.6722 21.4647 29.8569C20.9846 30.0385 20.4413 30.1293 19.835 30.1293C18.9918 30.1293 18.2377 29.9384 17.573 29.5568C16.9113 29.1752 16.3881 28.6228 16.0034 27.8995C15.6217 27.1763 15.4309 26.3007 15.4309 25.2727C15.4309 24.2417 15.6248 23.3646 16.0126 22.6413C16.4004 21.9181 16.9267 21.3672 17.5914 20.9886C18.2562 20.607 19.0041 20.4162 19.835 20.4162C20.3829 20.4162 20.8907 20.4931 21.3585 20.647C21.8294 20.8009 22.2464 21.0256 22.6096 21.321C22.9727 21.6134 23.2682 21.9719 23.4959 22.3967C23.7267 22.8214 23.8745 23.3076 23.9391 23.8555ZM25.0124 22.1935V20.5455H32.7773V22.1935H29.8828V30H27.907V22.1935H25.0124ZM35.7642 20.5455L38.0494 27.7287H38.1371L40.4268 20.5455H42.6428L39.3835 30H36.8075L33.5437 20.5455H35.7642Z" fill="white"/>
</svg>
