<svg width="21" height="24" viewBox="0 0 21 24" fill="none" xmlns="http://www.w3.org/2000/svg">
<path d="M13.5 1.7021V4.8C13.5 5.22004 13.5 5.43006 13.5817 5.59049C13.6537 5.73161 13.7684 5.84635 13.9095 5.91825C14.0699 6 14.28 6 14.7 6H17.7979M18 7.49117V12.9C18 14.1601 18 14.7902 17.7548 15.2715C17.539 15.6948 17.1948 16.039 16.7715 16.2548C16.2902 16.5 15.6601 16.5 14.4 16.5H9.6C8.33988 16.5 7.70982 16.5 7.22852 16.2548C6.80516 16.039 6.46095 15.6948 6.24524 15.2715C6 14.7902 6 14.1601 6 12.9V5.1C6 3.83988 6 3.20982 6.24524 2.72852C6.46095 2.30516 6.80516 1.96095 7.22852 1.74524C7.70982 1.5 8.33988 1.5 9.6 1.5H12.0088C12.5592 1.5 12.8343 1.5 13.0933 1.56217C13.3229 1.61729 13.5423 1.7082 13.7436 1.83156C13.9707 1.9707 14.1653 2.16527 14.5544 2.55442L16.9456 4.94558C17.3347 5.33473 17.5293 5.5293 17.6684 5.75636C17.7918 5.95767 17.8827 6.17715 17.9378 6.40673C18 6.66568 18 6.94084 18 7.49117Z" stroke="#2CB3FF" stroke-width="2" stroke-linecap="round" stroke-linejoin="round"/>
<g clip-path="url(#clip0_3_198)">
<path d="M3 10.35C3 9.08988 3 8.45982 3.24524 7.97852C3.46095 7.55516 3.80516 7.21095 4.22852 6.99524C4.70982 6.75 5.33988 6.75 6.6 6.75H9.00883C9.55916 6.75 9.83432 6.75 10.0933 6.81217C10.3229 6.86729 10.5423 6.9582 10.7436 7.08156C10.9707 7.2207 11.1653 7.41527 11.5544 7.80442L13.9456 10.1956C14.3347 10.5847 14.5293 10.7793 14.6684 11.0064C14.7918 11.2077 14.8827 11.4271 14.9378 11.6567C15 11.9157 15 12.1908 15 12.7412V18.15C15 19.4101 15 20.0402 14.7548 20.5215C14.539 20.9448 14.1948 21.289 13.7715 21.5048C13.2902 21.75 12.6601 21.75 11.4 21.75H6.6C5.33988 21.75 4.70982 21.75 4.22852 21.5048C3.80516 21.289 3.46095 20.9448 3.24524 20.5215C3 20.0402 3 19.4101 3 18.15V10.35Z" fill="white"/>
<path d="M10.5 6.95215V10.0501C10.5 10.4701 10.5 10.6801 10.5817 10.8405C10.6537 10.9817 10.7684 11.0964 10.9095 11.1683C11.0699 11.2501 11.28 11.2501 11.7 11.2501H14.7979M10.5 18H6M12 15H6M15 12.7412V18.15C15 19.4101 15 20.0402 14.7548 20.5215C14.539 20.9448 14.1948 21.289 13.7715 21.5048C13.2902 21.75 12.6601 21.75 11.4 21.75H6.6C5.33988 21.75 4.70982 21.75 4.22852 21.5048C3.80516 21.289 3.46095 20.9448 3.24524 20.5215C3 20.0402 3 19.4101 3 18.15V10.35C3 9.08988 3 8.45982 3.24524 7.97852C3.46095 7.55516 3.80516 7.21095 4.22852 6.99524C4.70982 6.75 5.33988 6.75 6.6 6.75H9.00883C9.55916 6.75 9.83432 6.75 10.0933 6.81217C10.3229 6.86729 10.5423 6.9582 10.7436 7.08156C10.9707 7.2207 11.1653 7.41527 11.5544 7.80442L13.9456 10.1956C14.3347 10.5847 14.5293 10.7793 14.6684 11.0064C14.7918 11.2077 14.8827 11.4271 14.9378 11.6567C15 11.9157 15 12.1908 15 12.7412Z" stroke="#2CB3FF" stroke-width="2" stroke-linecap="round" stroke-linejoin="round"/>
</g>
<defs>
<clipPath id="clip0_3_198">
<rect width="18" height="18" fill="white" transform="translate(0 5.25)"/>
</clipPath>
</defs>
</svg>
