<svg width="49" height="49" viewBox="0 0 49 49" fill="none" xmlns="http://www.w3.org/2000/svg">
<circle cx="24.5" cy="24.5" r="24.5" fill="#2CB3FF"/>
<g clip-path="url(#clip0_292_1479)">
<path d="M19.6248 13.75C19.6248 13.0083 19.8448 12.2833 20.2568 11.6666C20.6689 11.0499 21.2545 10.5693 21.9398 10.2855C22.625 10.0016 23.379 9.92736 24.1064 10.0721C24.8338 10.2168 25.502 10.5739 26.0265 11.0984C26.5509 11.6228 26.9081 12.291 27.0528 13.0184C27.1975 13.7458 27.1232 14.4998 26.8394 15.1851C26.5555 15.8703 26.0749 16.456 25.4582 16.868C24.8415 17.2801 24.1165 17.5 23.3748 17.5C22.3803 17.5 21.4264 17.1049 20.7232 16.4017C20.0199 15.6984 19.6248 14.7446 19.6248 13.75V13.75ZM37.1248 35H35.8948L34.4998 31.5C34.1772 30.6866 33.6171 29.9893 32.8925 29.4988C32.1679 29.0083 31.3123 28.7474 30.4373 28.75H25.8748C25.7091 28.75 25.5501 28.6842 25.4329 28.5669C25.3157 28.4497 25.2498 28.2908 25.2498 28.125V26.25H30.8748C31.3721 26.25 31.849 26.0525 32.2007 25.7008C32.5523 25.3492 32.7498 24.8723 32.7498 24.375C32.7498 23.8777 32.5523 23.4008 32.2007 23.0492C31.849 22.6975 31.3721 22.5 30.8748 22.5H25.2498V20.625C25.2498 20.1277 25.0523 19.6508 24.7007 19.2992C24.349 18.9475 23.8721 18.75 23.3748 18.75C22.8775 18.75 22.4006 18.9475 22.049 19.2992C21.6974 19.6508 21.4998 20.1277 21.4998 20.625V28.125C21.5036 29.0893 21.8259 30.0254 22.4166 30.7876C23.0073 31.5499 23.8332 32.0956 24.7661 32.34C24.3627 33.3309 23.7112 34.2014 22.8743 34.8678C22.0373 35.5342 21.043 35.9742 19.987 36.1453C18.9309 36.3165 17.8485 36.2132 16.8439 35.8453C15.8393 35.4774 14.9462 34.8572 14.2505 34.0445C13.5548 33.2318 13.0798 32.2537 12.8712 31.2044C12.6625 30.1551 12.7273 29.0697 13.0593 28.0527C13.3913 27.0356 13.9793 26.1211 14.7668 25.3969C15.5543 24.6727 16.5148 24.1633 17.5561 23.9175C18.0401 23.8031 18.4589 23.5012 18.7202 23.078C18.9816 22.6549 19.0642 22.1453 18.9498 21.6613C18.8355 21.1772 18.5335 20.7585 18.1104 20.4971C17.6872 20.2357 17.1776 20.1531 16.6936 20.2675C14.9694 20.6753 13.3845 21.5338 12.1011 22.7552C10.8177 23.9766 9.88187 25.5171 9.38932 27.219C8.89677 28.9209 8.86522 30.7231 9.29789 32.4411C9.73057 34.1592 10.6119 35.7315 11.8518 36.9971C13.0917 38.2627 14.6455 39.1762 16.3543 39.6441C18.0632 40.1119 19.8656 40.1174 21.5773 39.6599C23.2889 39.2024 24.8483 38.2984 26.0958 37.0404C27.3433 35.7823 28.2342 34.2154 28.6773 32.5H30.4273C30.552 32.4999 30.6738 32.5372 30.7772 32.6069C30.8806 32.6766 30.9607 32.7756 31.0073 32.8913L32.8823 37.5713C33.0216 37.9195 33.2621 38.2179 33.5727 38.428C33.8833 38.6382 34.2498 38.7503 34.6248 38.75H37.1248C37.6221 38.75 38.099 38.5525 38.4507 38.2008C38.8023 37.8492 38.9998 37.3723 38.9998 36.875C38.9998 36.3777 38.8023 35.9008 38.4507 35.5492C38.099 35.1975 37.6221 35 37.1248 35Z" fill="white"/>
</g>
<defs>
<clipPath id="clip0_292_1479">
<rect width="30" height="30" fill="white" transform="translate(9 10)"/>
</clipPath>
</defs>
</svg>
