<svg width="58" height="58" viewBox="0 0 58 58" fill="none" xmlns="http://www.w3.org/2000/svg">
<g filter="url(#filter0_d_3_79)">
<circle cx="29" cy="25" r="25" fill="white"/>
</g>
<path d="M38.1268 25.3968C38.1268 30.6567 33.8629 34.9206 28.603 34.9206M38.1268 25.3968C38.1268 20.137 33.8629 15.873 28.603 15.873M38.1268 25.3968H40.5078M28.603 34.9206C23.3431 34.9206 19.0792 30.6567 19.0792 25.3968M28.603 34.9206V37.3016M19.0792 25.3968C19.0792 20.137 23.3431 15.873 28.603 15.873M19.0792 25.3968H16.6982M28.603 15.873V13.4921M32.1744 25.3968C32.1744 27.3693 30.5754 28.9683 28.603 28.9683C26.6306 28.9683 25.0316 27.3693 25.0316 25.3968C25.0316 23.4244 26.6306 21.8254 28.603 21.8254C30.5754 21.8254 32.1744 23.4244 32.1744 25.3968Z" stroke="#2CB3FF" stroke-width="2.5" stroke-linecap="round" stroke-linejoin="round"/>
<defs>
<filter id="filter0_d_3_79" x="0" y="0" width="58" height="58" filterUnits="userSpaceOnUse" color-interpolation-filters="sRGB">
<feFlood flood-opacity="0" result="BackgroundImageFix"/>
<feColorMatrix in="SourceAlpha" type="matrix" values="0 0 0 0 0 0 0 0 0 0 0 0 0 0 0 0 0 0 127 0" result="hardAlpha"/>
<feOffset dy="4"/>
<feGaussianBlur stdDeviation="2"/>
<feComposite in2="hardAlpha" operator="out"/>
<feColorMatrix type="matrix" values="0 0 0 0 0 0 0 0 0 0 0 0 0 0 0 0 0 0 0.25 0"/>
<feBlend mode="normal" in2="BackgroundImageFix" result="effect1_dropShadow_3_79"/>
<feBlend mode="normal" in="SourceGraphic" in2="effect1_dropShadow_3_79" result="shape"/>
</filter>
</defs>
</svg>
