<svg width="58" height="58" viewBox="0 0 58 58" fill="none" xmlns="http://www.w3.org/2000/svg">
<g filter="url(#filter0_d_110_1519)">
<circle cx="29" cy="25" r="25" fill="white"/>
</g>
<path d="M38.1268 25.3969C38.1268 30.6568 33.8629 34.9208 28.603 34.9208M38.1268 25.3969C38.1268 20.1371 33.8629 15.8731 28.603 15.8731M38.1268 25.3969H40.5078M28.603 34.9208C23.3431 34.9208 19.0792 30.6568 19.0792 25.3969M28.603 34.9208V37.3017M19.0792 25.3969C19.0792 20.1371 23.3431 15.8731 28.603 15.8731M19.0792 25.3969H16.6982M28.603 15.8731V13.4922M32.1744 25.3969C32.1744 27.3694 30.5754 28.9684 28.603 28.9684C26.6306 28.9684 25.0316 27.3694 25.0316 25.3969C25.0316 23.4245 26.6306 21.8255 28.603 21.8255C30.5754 21.8255 32.1744 23.4245 32.1744 25.3969Z" stroke="#2CB3FF" stroke-width="2.5" stroke-linecap="round" stroke-linejoin="round"/>
<defs>
<filter id="filter0_d_110_1519" x="0" y="0" width="58" height="58" filterUnits="userSpaceOnUse" color-interpolation-filters="sRGB">
<feFlood flood-opacity="0" result="BackgroundImageFix"/>
<feColorMatrix in="SourceAlpha" type="matrix" values="0 0 0 0 0 0 0 0 0 0 0 0 0 0 0 0 0 0 127 0" result="hardAlpha"/>
<feOffset dy="4"/>
<feGaussianBlur stdDeviation="2"/>
<feComposite in2="hardAlpha" operator="out"/>
<feColorMatrix type="matrix" values="0 0 0 0 0 0 0 0 0 0 0 0 0 0 0 0 0 0 0.25 0"/>
<feBlend mode="normal" in2="BackgroundImageFix" result="effect1_dropShadow_110_1519"/>
<feBlend mode="normal" in="SourceGraphic" in2="effect1_dropShadow_110_1519" result="shape"/>
</filter>
</defs>
</svg>
