<svg width="49" height="49" viewBox="0 0 49 49" fill="none" xmlns="http://www.w3.org/2000/svg">
<circle cx="24.5" cy="24.5" r="24.5" fill="#2CB3FF"/>
<path d="M24.0767 19.2306C26.6257 19.2306 28.6921 17.1643 28.6921 14.6153C28.6921 12.0664 26.6257 10 24.0767 10C21.5278 10 19.4614 12.0664 19.4614 14.6153C19.4614 17.1643 21.5278 19.2306 24.0767 19.2306Z" fill="white"/>
<path d="M32.1536 27.3078C32.1536 25.1657 31.3027 23.1113 29.788 21.5966C28.2733 20.0819 26.2189 19.231 24.0768 19.231C21.9347 19.231 19.8803 20.0819 18.3657 21.5966C16.851 23.1113 16 25.1657 16 27.3078V30.7693H19.4615L20.6153 39.9998H27.5383L28.6921 30.7693H32.1536V27.3078Z" fill="white"/>
</svg>
