<svg width="40" height="40" viewBox="0 0 40 40" fill="none" xmlns="http://www.w3.org/2000/svg">
<g id="user-circle">
<path id="Icon" d="M8.86065 32.3974C9.87453 30.0087 12.2417 28.3334 15.0002 28.3334H25.0002C27.7586 28.3334 30.1258 30.0087 31.1397 32.3974M26.6668 15.8334C26.6668 19.5153 23.6821 22.5 20.0002 22.5C16.3183 22.5 13.3335 19.5153 13.3335 15.8334C13.3335 12.1515 16.3183 9.16671 20.0002 9.16671C23.6821 9.16671 26.6668 12.1515 26.6668 15.8334ZM36.6668 20C36.6668 29.2048 29.2049 36.6667 20.0002 36.6667C10.7954 36.6667 3.3335 29.2048 3.3335 20C3.3335 10.7953 10.7954 3.33337 20.0002 3.33337C29.2049 3.33337 36.6668 10.7953 36.6668 20Z" stroke="black" stroke-width="2.5" stroke-linecap="round" stroke-linejoin="round"/>
</g>
</svg>
