<svg width="40" height="40" viewBox="0 0 40 40" fill="none" xmlns="http://www.w3.org/2000/svg">
<path d="M20 26.6669C22.7614 26.6669 25 24.4283 25 21.6669C25 18.9055 22.7614 16.6669 20 16.6669C17.2386 16.6669 15 18.9055 15 21.6669C15 24.4283 17.2386 26.6669 20 26.6669Z" stroke="#2CB3FF" stroke-width="2.5" stroke-linecap="round" stroke-linejoin="round"/>
<path d="M5 17.6087C5 16.6514 5 16.1728 5.12338 15.732C5.23267 15.3415 5.41228 14.9743 5.65338 14.6483C5.92556 14.2803 6.30337 13.9865 7.05898 13.3988L18.3628 4.60691C18.9484 4.15149 19.2411 3.92378 19.5644 3.83625C19.8497 3.75901 20.1503 3.75901 20.4356 3.83625C20.7589 3.92378 21.0516 4.15149 21.6372 4.60691L32.941 13.3988C33.6966 13.9865 34.0744 14.2803 34.3466 14.6483C34.5877 14.9743 34.7673 15.3415 34.8766 15.732C35 16.1728 35 16.6514 35 17.6087V29.6669C35 31.5337 35 32.4671 34.6367 33.1802C34.3171 33.8074 33.8072 34.3173 33.18 34.6369C32.4669 35.0002 31.5335 35.0002 29.6667 35.0002H10.3333C8.46649 35.0002 7.53307 35.0002 6.82003 34.6369C6.19282 34.3173 5.68289 33.8074 5.36331 33.1802C5 32.4671 5 31.5337 5 29.6669V17.6087Z" stroke="#2CB3FF" stroke-width="2.5" stroke-linecap="round" stroke-linejoin="round"/>
</svg>
