<svg width="22" height="22" viewBox="0 0 22 22" fill="none" xmlns="http://www.w3.org/2000/svg">
<g id="&#237;&#153;&#148;&#236;&#158;&#165;&#236;&#139;&#164; &#236;&#149;&#132;&#236;&#157;&#180;&#236;&#189;&#152;">
<g id="toilet-women--travel-wayfinder-toilet-women">
<path id="Vector" d="M16.5 6C17.8807 6 19 4.88072 19 3.5C19 2.11929 17.8807 1 16.5 1C15.1193 1 14 2.11929 14 3.5C14 4.88072 15.1193 6 16.5 6Z" fill="white" stroke="#02A12E" stroke-width="1.7" stroke-linecap="round" stroke-linejoin="round"/>
<path id="Ellipse 7" d="M18.6903 17.1022L18.1428 21H16.5003H14.8572L14.3097 17.1022H12.546C12.2621 17.1022 12.0287 16.7733 12.0012 16.3522C11.9976 16.2971 12.0025 16.2424 12.0106 16.1882C12.6263 12.0419 12.8062 6 16.4999 6C20.1937 6 20.3737 12.0417 20.9894 16.1882C20.9974 16.2424 21.0024 16.2971 20.9988 16.3522C20.9713 16.7733 20.7379 17.1022 20.454 17.1022H18.6903Z" fill="white" stroke="#02A12E" stroke-width="1.7" stroke-linecap="round" stroke-linejoin="round"/>
</g>
<g id="Group 4671">
<path id="Vector_2" d="M10 11.8333C10 10.2862 9.52588 8.80251 8.68196 7.70854C7.83806 6.61459 6.69347 6 5.49999 6C4.30652 6 3.16193 6.61459 2.31802 7.70854C1.47411 8.80251 1 10.2862 1 11.8333V14.3334H2.92858L3.57142 21H7.42856L8.07141 14.3334H10V11.8333Z" fill="white" stroke="#02A12E" stroke-width="1.7" stroke-linecap="round" stroke-linejoin="round"/>
<path id="Vector_3" d="M5.5 6C6.88071 6 8.00001 4.88072 8.00001 3.5C8.00001 2.11929 6.88071 1 5.5 1C4.11928 1 3 2.11929 3 3.5C3 4.88072 4.11928 6 5.5 6Z" fill="white" stroke="#02A12E" stroke-width="1.7" stroke-linecap="round" stroke-linejoin="round"/>
</g>
</g>
</svg>
