<svg width="49" height="49" viewBox="0 0 49 49" fill="none" xmlns="http://www.w3.org/2000/svg">
<circle cx="24.5" cy="24.5" r="24.5" fill="#2CB3FF"/>
<path d="M23.8492 19.4221C26.4511 19.4221 28.5603 17.3129 28.5603 14.711C28.5603 12.1092 26.4511 10 23.8492 10C21.2474 10 19.1382 12.1092 19.1382 14.711C19.1382 17.3129 21.2474 19.4221 23.8492 19.4221Z" fill="white"/>
<path d="M28.1556 34.6526L27.079 40.0001H23.8493H20.6184L19.5417 34.6526H16.0736C15.5154 34.6526 15.0563 34.2015 15.0023 33.6237C14.9953 33.5481 15.005 33.4731 15.0208 33.3987C16.2316 27.7103 16.5853 19.4214 23.8485 19.4214C31.1119 19.4214 31.4659 27.7101 32.6766 33.3987C32.6923 33.4731 32.702 33.5481 32.695 33.6237C32.6408 34.2015 32.182 34.6526 31.6237 34.6526H28.1556Z" fill="white"/>
</svg>
